HIERARCHY
ROOT Hips
{
 OFFSET 0.000000 0.000000 0.000000
 CHANNELS 6 Xposition Yposition Zposition Yrotation Xrotation Zrotation
 JOINT Chest
 {
  OFFSET 0.000000 9.585900 0.002600
  CHANNELS 3 Yrotation Xrotation Zrotation
  JOINT Chest2
  {
   OFFSET 0.000000 9.601200 -0.005300
   CHANNELS 3 Yrotation Xrotation Zrotation
   JOINT Chest3
   {
    OFFSET 0.000000 9.561800 0.000000
    CHANNELS 3 Yrotation Xrotation Zrotation
    JOINT Chest4
    {
     OFFSET 0.000000 9.552100 0.000000
     CHANNELS 3 Yrotation Xrotation Zrotation
     JOINT Neck
     {
      OFFSET 0.000000 14.453000 0.000000
      CHANNELS 3 Yrotation Xrotation Zrotation
      JOINT Head
      {
       OFFSET 0.000000 8.936500 -0.011300
       CHANNELS 3 Yrotation Xrotation Zrotation
       End Site
       {
        OFFSET 0.000000 17.073600 -0.006000
       }
      }
     }
     JOINT RightCollar
     {
      OFFSET -2.921100 9.558500 0.000000
      CHANNELS 3 Yrotation Xrotation Zrotation
      JOINT RightShoulder
      {
       OFFSET -13.519700 0.000000 0.000000
       CHANNELS 3 Yrotation Xrotation Zrotation
       JOINT RightElbow
       {
        OFFSET 0.000000 -29.696600 0.000000
        CHANNELS 3 Yrotation Xrotation Zrotation
        JOINT RightWrist
        {
         OFFSET 0.000000 -24.004700 0.000000
         CHANNELS 3 Yrotation Xrotation Zrotation
         End Site
         {
          OFFSET 0.000000 -17.728500 0.000000
         }
        }
       }
      }
     }
     JOINT LeftCollar
     {
      OFFSET 2.921100 9.558500 0.000000
      CHANNELS 3 Yrotation Xrotation Zrotation
      JOINT LeftShoulder
      {
       OFFSET 13.519700 0.000000 0.000000
       CHANNELS 3 Yrotation Xrotation Zrotation
       JOINT LeftElbow
       {
        OFFSET 0.000000 -29.696600 0.000000
        CHANNELS 3 Yrotation Xrotation Zrotation
        JOINT LeftWrist
        {
         OFFSET 0.000000 -24.004700 0.000000
         CHANNELS 3 Yrotation Xrotation Zrotation
         End Site
         {
          OFFSET 0.000000 -17.728500 0.000000
         }
        }
       }
      }
     }
    }
   }
  }
 }
 JOINT RightHip
 {
  OFFSET -7.771700 -0.012900 -0.001300
  CHANNELS 3 Yrotation Xrotation Zrotation
  JOINT RightKnee
  {
   OFFSET 0.000000 -40.869800 0.001200
   CHANNELS 3 Yrotation Xrotation Zrotation
   JOINT RightAnkle
   {
    OFFSET 0.000000 -39.717900 0.002100
    CHANNELS 3 Yrotation Xrotation Zrotation
    JOINT RightToe
    {
     OFFSET 0.000000 -4.965400 11.033500
     CHANNELS 3 Yrotation Xrotation Zrotation
     End Site
     {
      OFFSET 0.000000 -1.423100 5.872300
     }
    }
   }
  }
 }
 JOINT LeftHip
 {
  OFFSET 7.771700 -0.012900 -0.001300
  CHANNELS 3 Yrotation Xrotation Zrotation
  JOINT LeftKnee
  {
   OFFSET 0.000000 -40.869800 0.001200
   CHANNELS 3 Yrotation Xrotation Zrotation
   JOINT LeftAnkle
   {
    OFFSET 0.000000 -39.717900 0.002100
    CHANNELS 3 Yrotation Xrotation Zrotation
    JOINT LeftToe
    {
     OFFSET 0.000000 -4.965400 11.033500
     CHANNELS 3 Yrotation Xrotation Zrotation
     End Site
     {
      OFFSET 0.000000 -1.423100 5.872300
     }
    }
   }
  }
 }
}
MOTION
Frames: 11
Frame Time: 0.008333
0.000000 85.388000 0.000000 0.000000 -5.767877 0.000000 0.000000 11.653817 0.000000 0.000000 -5.885947 0.000000 0.000000 -0.000000 0.000000 0.000000 -0.000000 0.000000 0.000000 12.528835 0.000000 0.000000 0.711642 0.000000 0.000000 -0.000000 0.000000 0.000000 0.000000 -90.000000 0.000000 -2.309062 0.000000 0.000000 2.309062 0.000000 0.000000 -0.000000 0.000000 0.000000 -0.000000 90.000000 0.000000 -2.309062 0.000000 0.000000 2.309062 0.000000 0.000000 8.520406 0.000000 0.000000 1.905762 0.000000 -0.000000 -4.658285 0.000000 0.000000 -0.000000 0.000000 0.000000 8.520406 0.000000 0.000000 1.905762 0.000000 -0.000000 -4.658285 0.000000 0.000000 -0.000000 0.000000
-49.591652 56.334408 -16.054558 -177.494090 -13.472116 -0.116460 -0.417385 15.803436 -0.120183 -0.027580 1.535422 0.060787 -0.032424 2.549210 0.087454 -0.183054 14.067466 0.532355 0.805219 12.579564 -3.480495 1.671532 -12.451289 -3.862781 0.571879 -0.155065 1.010758 0.695274 -8.803583 -7.361254 -80.567318 -54.949373 115.395186 -15.824817 -2.605531 -4.219411 -8.035636 -1.832916 1.774091 3.174765 -13.286161 7.298176 62.096441 -48.569340 -105.341766 10.257737 -4.417849 4.881998 -2.386066 -61.913814 10.627972 -32.945937 84.683711 -37.294756 -9.474564 -17.092959 13.531399 0.259738 -0.434565 0.098630 18.234944 -55.873414 -21.970847 67.741218 71.484208 68.730303 -7.149864 -14.914685 1.006082 0.339550 0.855045 0.151612
-49.591456 56.336666 -16.055209 -177.496067 -13.475085 -0.121200 -0.399763 15.783775 -0.126060 -0.009813 1.502223 0.044020 -0.044113 2.569754 0.101668 -0.160532 14.037820 0.513871 0.853637 12.606496 -3.427712 1.689347 -12.419201 -3.822772 0.547722 -0.096723 1.060188 0.727682 -8.838417 -7.395852 -80.539951 -54.922961 115.322953 -15.810815 -2.551614 -4.220024 -8.121212 -1.785946 1.681761 3.361567 -13.302390 7.317841 62.341343 -48.672133 -105.297240 10.251134 -4.139315 4.663267 -2.383020 -61.902557 10.623484 -32.851175 84.676965 -37.192033 -9.480606 -17.105503 13.541932 0.257760 -0.422810 0.090655 18.224536 -55.871091 -21.960521 67.741772 71.477078 68.736401 -7.159744 -14.912972 1.002246 0.347738 0.853513 0.150576
-49.592091 56.339021 -16.055142 -177.509536 -13.474997 -0.119301 -0.370279 15.759875 -0.134568 -0.017313 1.511429 0.050576 -0.031098 2.539131 0.086626 -0.149132 14.030050 0.507030 0.867002 12.645929 -3.386869 1.706029 -12.406107 -3.804109 0.525844 -0.046341 1.098659 0.734174 -8.846378 -7.401719 -80.505811 -54.942585 115.295022 -15.818528 -2.548199 -4.224227 -8.201292 -1.725702 1.578978 3.587069 -13.351774 7.323518 62.651824 -48.819967 -105.258811 10.228596 -3.797836 4.397076 -2.368284 -61.897739 10.618527 -32.764681 84.669768 -37.099985 -9.496027 -17.106262 13.548763 0.279068 -0.415553 0.089067 18.231654 -55.869829 -21.958404 67.736125 71.476159 68.732672 -7.155820 -14.908958 1.000680 0.346915 0.848025 0.151407
-49.594479 56.341775 -16.056351 -177.532213 -13.484716 -0.106062 -0.330718 15.717542 -0.165261 -0.022554 1.525547 0.058797 -0.031192 2.539651 0.087697 -0.134389 14.013036 0.494367 0.884420 12.688438 -3.345385 1.724365 -12.390653 -3.786359 0.514862 -0.011437 1.137006 0.733477 -8.837170 -7.405409 -80.439662 -54.960290 115.267487 -15.813678 -2.568468 -4.248840 -8.274991 -1.629495 1.486067 3.852763 -13.443826 7.302483 63.018904 -49.020435 -105.222145 10.191929 -3.419822 4.085287 -2.325574 -61.885212 10.591617 -32.735039 84.661742 -37.067873 -9.496088 -17.106684 13.556464 0.241957 -0.416293 0.084621 18.242108 -55.852290 -21.962110 67.740056 71.464090 68.730246 -7.139329 -14.919223 1.004569 0.329288 0.853698 0.144075
-49.596212 56.344230 -16.056700 -177.542880 -13.490663 -0.099747 -0.314047 15.697400 -0.182396 -0.018526 1.513623 0.053055 -0.030192 2.539995 0.088877 -0.119180 13.995778 0.480768 0.933927 12.726501 -3.302999 1.766075 -12.352254 -3.754384 0.523957 0.012466 1.179390 0.728406 -8.840587 -7.409275 -80.379925 -54.960195 115.209486 -15.804544 -2.525812 -4.263155 -8.336304 -1.502387 1.408435 4.157206 -13.578104 7.248263 63.425199 -49.272939 -105.179782 10.152220 -3.043061 3.741550 -2.300732 -61.877608 10.570657 -32.727361 84.655229 -37.055257 -9.485185 -17.105509 13.556978 0.234802 -0.418490 0.086014 18.246443 -55.843297 -21.965707 67.738368 71.461474 68.725634 -7.121737 -14.919679 1.007798 0.315163 0.852649 0.139334
-49.598074 56.346268 -16.056326 -177.548393 -13.493896 -0.093411 -0.299855 15.674347 -0.199608 -0.016673 1.509256 0.051342 -0.027206 2.532923 0.085984 -0.117092 14.006088 0.483840 0.989110 12.740794 -3.285359 1.897950 -12.282252 -3.719660 0.522067 0.032199 1.200573 0.727620 -8.847043 -7.409304 -80.341142 -54.958543 115.198497 -15.793669 -2.487830 -4.283248 -8.370964 -1.389783 1.329417 4.498949 -13.740875 7.158422 63.854802 -49.563325 -105.123898 10.116164 -2.699216 3.396737 -2.282056 -61.873843 10.551966 -32.715611 84.652442 -37.042514 -9.474412 -17.103376 13.559274 0.250495 -0.419858 0.089866 18.249033 -55.837224 -21.974782 67.730376 71.455347 68.718377 -7.110115 -14.916547 1.010129 0.307890 0.851739 0.133024
-49.599417 56.347611 -16.054500 -177.548239 -13.489547 -0.090068 -0.289720 15.650175 -0.209864 -0.011465 1.498829 0.046758 -0.024426 2.526106 0.083281 -0.097468 13.976105 0.462363 1.106156 12.792158 -3.245533 1.904505 -12.214439 -3.671136 0.498664 0.090978 1.249176 0.721180 -8.844072 -7.409031 -80.316305 -54.956570 115.217031 -15.788621 -2.450416 -4.304858 -8.413131 -1.233690 1.284933 4.875790 -13.914118 7.033584 64.293745 -49.865456 -105.047411 10.076612 -2.404726 3.083362 -2.273549 -61.876721 10.541139 -32.704868 84.646804 -37.024796 -9.499505 -17.103717 13.569675 0.250694 -0.418989 0.091907 18.245904 -55.839984 -21.986345 67.683397 71.462713 68.684243 -7.093970 -14.908189 0.994831 0.319543 0.852221 0.135954
-49.601783 56.348579 -16.052823 -177.544121 -13.487501 -0.079778 -0.292221 15.641426 -0.223156 0.001066 1.476295 0.037319 -0.021818 2.519945 0.080818 -0.076924 13.947179 0.442739 1.155393 12.853606 -3.202514 1.953898 -12.165023 -3.648029 0.505015 0.127932 1.290977 0.689387 -8.836127 -7.400981 -80.278717 -54.960109 115.223160 -15.794885 -2.386692 -4.283677 -8.442907 -1.089622 1.247601 5.285745 -14.087496 6.876825 64.718026 -50.154931 -104.941222 10.043525 -2.170151 2.818622 -2.250364 -61.877773 10.509582 -32.629055 84.647132 -36.944608 -9.517278 -17.106955 13.577103 0.257981 -0.412509 0.089174 18.248347 -55.841559 -22.008968 67.662997 71.462441 68.671914 -7.088211 -14.891348 0.973761 0.322540 0.844385 0.147846
-49.603097 56.349409 -16.052469 -177.542270 -13.493942 -0.073174 -0.281066 15.623109 -0.238442 0.003305 1.473429 0.039675 -0.019487 2.514386 0.078495 -0.065080 13.933633 0.431539 1.211942 12.902980 -3.171798 2.006284 -12.113950 -3.627985 0.517411 0.155927 1.317335 0.670805 -8.831789 -7.397135 -80.264645 -54.963816 115.251359 -15.793633 -2.379631 -4.292639 -8.450678 -0.975678 1.208708 5.731824 -14.260551 6.688436 65.085517 -50.412250 -104.781948 10.038686 -2.015707 2.610434 -2.242166 -61.868929 10.497415 -32.562017 84.647125 -36.878651 -9.535786 -17.109599 13.583529 0.260243 -0.408218 0.087449 18.243778 -55.839159 -22.020691 67.663459 71.461138 68.682383 -7.080496 -14.875437 0.944092 0.322815 0.835035 0.162943
-49.603932 56.349822 -16.052219 -177.539893 -13.501032 -0.066735 -0.268415 15.605120 -0.248955 0.003178 1.473493 0.040318 -0.017339 2.508942 0.076368 -0.054206 13.920344 0.421307 1.270124 12.952880 -3.143911 2.061094 -12.062310 -3.611498 0.524128 0.182303 1.339659 0.658084 -8.825852 -7.396437 -80.262931 -54.963667 115.261433 -15.791023 -2.369267 -4.258952 -8.447542 -0.875207 1.174789 6.219913 -14.435187 6.467623 65.362901 -50.620502 -104.553025 10.059195 -1.955141 2.474961 -2.238108 -61.859983 10.485935 -32.506093 84.648053 -36.825564 -9.535930 -17.113293 13.586477 0.250561 -0.409830 0.093055 18.237775 -55.837404 -22.030665 67.678043 71.456634 68.704676 -7.074987 -14.863994 0.920278 0.314251 0.831886 0.165551
